HIERARCHY
ROOT Hips
{
	OFFSET 0.000000 0.000000 0.000000 
	CHANNELS 6 Xposition Yposition Zposition Yrotation Zrotation Xrotation 
	JOINT Lumbar
	{
		OFFSET 0.000000 0.000000 0.000000 
		CHANNELS 3 Zrotation Xrotation Yrotation
		JOINT Neck
		{
			OFFSET 0.000000 0.445665 0.000000 
			CHANNELS 3 Zrotation Xrotation Yrotation
			End Site
			{
				OFFSET 0.000000 0.227535 0.000000 
			}
		}
		JOINT RightShoulder
		{
			OFFSET 0.019635 0.377685 0.194865 
			CHANNELS 3 Zrotation Xrotation Yrotation
			JOINT RightElbow
			{
				OFFSET 0.000000 -0.243375 0.000000 
				CHANNELS 2 Zrotation Yrotation
				JOINT RightWrist
				{
					OFFSET 0.000000 -0.264825 0.000000 
					CHANNELS 2 Zrotation Xrotation
					End Site
					{
						OFFSET 0.006600 -0.176220 0.000990 
					}
				}
			}
		}
		JOINT LeftShoulder
		{
			OFFSET 0.019635 0.377685 -0.194865 
			CHANNELS 3 Zrotation Xrotation Yrotation
			JOINT LeftElbow
			{
				OFFSET 0.000000 -0.243375 0.000000 
				CHANNELS 2 Zrotation Yrotation
				JOINT LeftWrist
				{
					OFFSET 0.000000 -0.264825 0.000000 
					CHANNELS 2 Zrotation Xrotation
					End Site
					{
						OFFSET 0.006600 -0.176220 -0.000990 
					}
				}
			}
		}
	}
	JOINT RightHip
	{
		OFFSET 0.052140 -0.069960 0.075570 
		CHANNELS 3 Zrotation Xrotation Yrotation
		JOINT RightKnee
		{
			OFFSET 0.000000 -0.402270 0.000000 
			CHANNELS 1 Zrotation
			JOINT RightAnkle
			{
				OFFSET 0.000000 -0.404085 0.000000 
				CHANNELS 3 Zrotation Xrotation Yrotation
				End Site
				{
					OFFSET 0.204105 -0.089430 0.008415 
				}
			}
		}
	}
	JOINT LeftHip
	{
		OFFSET 0.052140 -0.069960 -0.075570 
		CHANNELS 3 Zrotation Xrotation Yrotation
		JOINT LeftKnee
		{
			OFFSET 0.000000 -0.402270 0.000000 
			CHANNELS 1 Zrotation
			JOINT LeftAnkle
			{
				OFFSET 0.000000 -0.404085 0.000000 
				CHANNELS 3 Zrotation Xrotation Yrotation
				End Site
				{
					OFFSET 0.204105 -0.089430 -0.008415 
				}
			}
		}
	}
}
MOTION
Frames: 20
Frame Time: 0.02
2.25007 0.47087 -1.24615 1102.83258 -13.35243 -3.78269 30.66857 1.10694 -9.27267 -12.39836 7.90278 -0.83079 4.12808 -12.61012 2.90487 119.9596 82.52852 -0.91851 3.40437 -19.45333 7.71687 -0.92263 114.26139 -85.64797 1.71518 0.30032 0.77987 -2.38505 10.52376 0.47386 2.43643 -15.70842 -8.62058 0.9641 2.8098 0.53298 0.4836 3.71302 9.67938 4.80821
2.24997 0.4709 -1.24636 1102.73362 -13.35911 -3.76232 30.76506 1.0746 -9.34928 -12.44039 7.94566 -0.83079 5.86137 -12.21348 4.20281 122.88652 85.89714 -0.09102 3.92658 -19.63677 7.50235 -0.69143 114.49054 -90.20501 2.90739 -0.66112 0.81407 -2.41797 10.59353 0.47418 2.52746 -15.53334 -8.52134 0.95227 2.78707 0.59586 0.48348 3.73404 9.48788 4.92899
2.24985 0.47095 -1.24651 1102.62299 -13.36224 -3.75474 30.85471 1.02772 -9.38749 -12.45545 8.05939 -0.83079 7.83894 -11.75784 5.54139 125.46606 90.15845 0.91167 4.34965 -19.76332 7.21048 -0.4652 114.71497 -95.94534 4.39326 -1.8814 0.84846 -2.43963 10.68577 0.47458 2.63069 -15.33663 -8.43466 0.93671 2.77695 0.67791 0.48339 3.77403 9.19665 5.08931
2.24974 0.47099 -1.24668 1102.51821 -13.36606 -3.7423 30.94623 0.98783 -9.44133 -12.48024 8.14253 -0.83079 9.69904 -11.32352 6.85074 128.15831 93.87537 1.82106 4.79355 -19.90997 6.95964 -0.24539 114.94023 -100.99832 5.72098 -2.9466 0.88158 -2.46576 10.76794 0.47494 2.72711 -15.15239 -8.34343 0.92212 2.76156 0.75158 0.48327 3.80375 8.96844 5.22336
2.24964 0.47103 -1.24684 1102.41082 -13.37488 -3.72595 31.04329 0.94606 -9.50368 -12.51522 8.22079 -0.83079 11.60406 -10.90863 8.21067 131.04906 98.17566 2.79141 5.34507 -20.08231 6.68274 0.01326 115.17185 -106.68742 7.15727 -4.1798 0.92127 -2.49431 10.84939 0.47533 2.83 -14.95665 -8.24624 0.912 2.74458 0.82328 0.48319 3.84002 8.67088 5.39136
2.2495 0.47107 -1.24703 1102.30643 -13.37198 -3.72069 31.12693 0.90492 -9.53863 -12.52286 8.32505 -0.83079 13.46359 -10.44154 9.47155 133.43865 101.47788 3.67501 5.64847 -20.18708 6.44225 0.18856 115.38867 -111.33165 8.43496 -5.12207 0.94666 -2.51542 10.9377 0.47566 2.92166 -14.78052 -8.16506 0.89113 2.73362 0.90361 0.48305 3.86752 8.49073 5.49892
2.24929 0.47111 -1.24729 1102.21085 -13.33826 -3.74372 31.1769 0.86828 -9.51057 -12.46037 8.48671 -0.83079 15.17576 -9.83478 10.4655 134.55565 101.75324 4.27788 5.27062 -20.1193 6.32111 0.14 115.56701 -112.78996 9.20928 -5.18108 0.93331 -2.51688 11.03987 0.47578 2.98177 -14.65662 -8.12302 0.84155 2.73813 1.00558 0.48275 3.86361 8.67508 5.42379
2.24903 0.47114 -1.24758 1102.11946 -13.29264 -3.77733 31.21323 0.83295 -9.45575 -12.37159 8.67119 -0.83079 16.82406 -9.18012 11.35451 135.17451 101.00252 4.7865 4.64932 -19.98528 6.23952 0.00655 115.73017 -113.15703 9.81196 -4.93979 0.90521 -2.51159 11.14827 0.47583 3.02932 -14.55506 -8.0975 0.78114 2.74791 1.11488 0.4824 3.85079 8.97745 5.28756
2.24879 0.47117 -1.24786 1102.02727 -13.25184 -3.80559 31.25466 0.79756 -9.41079 -12.29572 8.84322 -0.83079 18.47535 -8.55392 12.28052 136.00357 100.75594 5.33696 4.15173 -19.88133 6.14003 -0.09162 115.89948 -114.03042 10.48868 -4.84526 0.88318 -2.51062 11.25333 0.4759 3.08122 -14.44722 -8.06539 0.72535 2.75394 1.21975 0.48207 3.84365 9.21487 5.18351
2.24858 0.47121 -1.2481 1101.92866 -13.21325 -3.83662 31.30054 0.75938 -9.37355 -12.2148 9.02701 -0.83079 20.2476 -7.89603 13.25421 136.88935 100.38195 5.89844 3.59537 -19.77553 6.03733 -0.17605 116.07226 -114.90191 11.19312 -4.71668 0.86394 -2.50398 11.36063 0.47602 3.14035 -14.31995 -8.02836 0.67041 2.766 1.33135 0.48172 3.82999 9.49685 5.06267
2.2483 0.47122 -1.24845 1101.84628 -13.16748 -3.86418 31.33396 0.72752 -9.31518 -12.13855 9.1902 -0.83079 21.74668 -7.29523 14.1018 137.54268 100.01665 6.41145 3.10519 -19.65862 5.95195 -0.30915 116.23369 -115.50199 11.79437 -4.58411 0.83529 -2.50769 11.46531 0.47602 3.17997 -14.24167 -8.00716 0.61158 2.76675 1.42863 0.48142 3.82792 9.71507 4.9612
2.24786 0.47117 -1.24907 1101.79407 -13.10287 -3.88011 31.33646 0.71278 -9.1986 -12.08151 9.29559 -0.83079 22.52938 -6.84972 14.63732 137.68116 99.93332 6.81999 2.85462 -19.52703 5.90341 -0.55668 116.37246 -115.61944 12.1583 -4.51368 0.78458 -2.5415 11.55573 0.47586 3.17827 -14.27041 -8.01168 0.54122 2.73395 1.49838 0.48127 3.85676 9.73128 4.93321
2.24735 0.47108 -1.2498 1101.76133 -13.03177 -3.89211 31.32681 0.70438 -9.06324 -12.03025 9.37817 -0.83079 23.03399 -6.46623 15.04724 137.60356 99.88828 7.181 2.67992 -19.38676 5.87178 -0.85016 116.49942 -115.49523 12.42185 -4.44818 0.7247 -2.58591 11.6455 0.47555 3.15449 -14.35353 -8.03527 0.46798 2.68996 1.54987 0.48119 3.89808 9.67948 4.92589
2.24685 0.471 -1.2505 1101.72781 -12.96497 -3.90543 31.32275 0.69324 -8.9407 -11.97654 9.46789 -0.83079 23.64994 -6.06387 15.50773 137.62337 99.81674 7.55866 2.47288 -19.25103 5.83337 -1.12196 116.62858 -115.4761 12.7261 -4.3795 0.66902 -2.62578 11.73742 0.47524 3.13588 -14.42494 -8.05774 0.39834 2.65144 1.60174 0.48109 3.93574 9.65698 4.90535
2.24643 0.47097 -1.25115 1101.65759 -12.89224 -3.92081 31.31826 0.68178 -8.79847 -11.92108 9.5724 -0.83079 24.32711 -5.62049 15.99265 137.62932 99.74866 7.95377 2.24873 -19.11092 5.79155 -1.3998 116.77061 -115.44071 13.04501 -4.30512 0.61332 -2.66478 11.81643 0.47526 3.14167 -14.43613 -8.04416 0.31864 2.61057 1.69109 0.48091 3.96464 9.64408 4.89801
2.24583 0.47082 -1.25191 1101.67189 -12.83022 -3.93115 31.31153 0.67217 -8.69396 -11.87105 9.63997 -0.83079 24.8118 -5.27786 16.3975 137.61882 99.69536 8.30281 2.08081 -18.97813 5.76147 -1.67526 116.88317 -115.39458 13.31214 -4.24687 0.55486 -2.70753 11.92876 0.47449 3.08617 -14.59299 -8.11597 0.25937 2.57302 1.69322 0.48091 4.01481 9.5951 4.86992
2.24477 0.47039 -1.25295 1101.8856 -12.80189 -3.92608 31.30558 0.66905 -8.69137 -11.83427 9.61377 -0.83079 24.82933 -5.19977 16.61778 137.62297 99.68086 8.5327 2.05665 -18.87325 5.75005 -1.92899 116.91787 -115.39216 13.45695 -4.23992 0.49827 -2.76411 12.07719 0.47217 2.9157 -15.07021 -8.36484 0.25784 2.53786 1.49834 0.48132 4.12099 9.44948 4.77079
2.24354 0.46984 -1.25408 1102.18966 -12.78436 -3.9167 31.29733 0.66716 -8.72872 -11.80303 9.55026 -0.83079 24.66299 -5.22121 16.76088 137.61906 99.68409 8.71864 2.08664 -18.77533 5.75145 -2.17904 116.92322 -115.39002 13.55412 -4.24911 0.43811 -2.82328 12.27034 0.46883 2.67726 -15.70233 -8.70715 0.27727 2.50856 1.20834 0.48191 4.24803 9.27212 4.65209
2.24238 0.46932 -1.25514 1102.4708 -12.76001 -3.9106 31.28729 0.66265 -8.75255 -11.76952 9.50233 -0.83079 24.58452 -5.19595 16.93654 137.61689 99.67885 8.92791 2.08817 -18.67094 5.75313 -2.43289 116.94181 -115.38374 13.6772 -4.24706 0.37464 -2.87694 12.47882 0.46571 2.43536 -16.31158 -9.04436 0.28632 2.48224 0.93678 0.48245 4.36546 9.11733 4.54817
2.24125 0.4689 -1.25633 1102.67386 -12.7426 -3.89793 31.28787 0.66655 -8.75659 -11.73484 9.46065 -0.83079 24.48121 -5.17776 17.11992 137.61569 99.67406 9.1227 2.10744 -18.58021 5.7297 -2.67937 116.96074 -115.3851 13.78095 -4.26112 0.33088 -2.9481 12.53373 0.4641 2.32938 -16.73242 -9.23204 0.29745 2.43003 0.77166 0.48286 4.48422 8.92478 4.41961
